<?xml version="1.0" encoding="utf-8"?>
<!-- Generator: Adobe Illustrator 16.0.4, SVG Export Plug-In . SVG Version: 6.00 Build 0)  -->
<!DOCTYPE svg PUBLIC "-//W3C//DTD SVG 1.1//EN" "http://www.w3.org/Graphics/SVG/1.1/DTD/svg11.dtd">
<svg version="1.1" id="Layer_1" xmlns="http://www.w3.org/2000/svg" xmlns:xlink="http://www.w3.org/1999/xlink" x="0px" y="0px"
	 width="600px" height="600px" viewBox="0 0 600 600" enable-background="new 0 0 600 600" xml:space="preserve">
<rect x="-0.5" y="0.5" display="none" fill="#C1BFBF" stroke="#000000" stroke-miterlimit="10" width="600" height="600"/>
<rect x="168.5" y="169.5" display="none" fill="none" stroke="#542F00" stroke-miterlimit="10" width="262" height="262"/>
<g display="none">
	<polygon display="inline" fill="#FFFFFF" points="449.251,241.101 317,152.897 317,231.666 390.256,280.595 	"/>
	<polygon display="inline" fill="#FFFFFF" points="300,261.067 240.319,301 300,340.932 359.679,301 	"/>
	<polygon display="inline" fill="#FFFFFF" points="137,272.695 137,329.304 179.347,301 	"/>
	<polygon display="inline" fill="#FFFFFF" points="283,231.666 283,152.897 150.748,241.101 209.743,280.595 	"/>
	<polygon display="inline" fill="#FFFFFF" points="150.748,360.898 283,449.101 283,370.333 209.743,321.404 	"/>
	<path display="inline" fill="#FFFFFF" d="M300,16C142.599,16,15,143.599,15,301c0,157.402,127.599,285,285,285
		c157.4,0,285-127.598,285-285C585,143.599,457.4,16,300,16z M497,360.898c0,5.997-2.691,10.678-7.665,14.044l-179.8,119.797
		c-3.07,1.902-6.267,2.853-9.484,2.853c-3.219,0-6.389-0.95-9.46-2.853L110.676,374.942c-4.974-3.366-7.676-8.047-7.676-14.044
		V241.101c0-5.997,2.69-10.678,7.664-14.042L290.463,107.26c3.072-1.902,6.268-2.853,9.486-2.853s6.388,0.951,9.459,2.853
		l179.914,119.798c4.974,3.364,7.678,8.045,7.678,14.042V360.898z"/>
	<polygon display="inline" fill="#FFFFFF" points="317,370.333 317,449.101 449.251,360.898 390.256,321.404 	"/>
	<polygon display="inline" fill="#FFFFFF" points="463,329.304 463,272.695 420.652,301 	"/>
</g>
<g>
	<polygon points="175,279.429 175,322.766 207.417,301.098 	"/>
	<polygon points="185.497,346.953 287,414.479 287,354.177 230.79,316.719 	"/>
	<polygon points="413.504,255.241 312,187.717 312,248.019 368.211,285.476 	"/>
	<polygon points="287,248.019 287,187.717 185.497,255.241 230.79,285.476 	"/>
	<polygon points="312,354.177 312,414.479 413.504,346.953 368.211,316.719 	"/>
	<path d="M300,15.663c-157.641,0-285.435,127.793-285.435,285.435c0,157.643,127.793,285.435,285.435,285.435
		c157.643,0,285.435-127.792,285.435-285.435C585.435,143.457,457.643,15.663,300,15.663z M450,346.953
		c0,4.591-1.902,8.174-5.71,10.751l-137.567,91.713c-2.352,1.454-4.76,2.182-7.223,2.182s-4.872-0.728-7.223-2.182l-137.567-91.713
		c-3.807-2.577-5.709-6.16-5.709-10.751v-91.712c0-4.591,1.902-8.175,5.709-10.75l137.568-91.712
		c2.352-1.456,4.76-2.184,7.223-2.184s4.871,0.728,7.223,2.184l137.567,91.712c3.808,2.575,5.71,6.159,5.71,10.75V346.953z"/>
	<polygon points="424,322.766 424,279.429 391.583,301.098 	"/>
	<polygon points="299.5,270.526 253.812,301.098 299.5,331.668 345.188,301.098 	"/>
</g>
</svg>
