<?xml version="1.0" encoding="utf-8"?>
<!-- Generator: Adobe Illustrator 16.0.4, SVG Export Plug-In . SVG Version: 6.00 Build 0)  -->
<!DOCTYPE svg PUBLIC "-//W3C//DTD SVG 1.1//EN" "http://www.w3.org/Graphics/SVG/1.1/DTD/svg11.dtd">
<svg version="1.1" id="Layer_1" xmlns="http://www.w3.org/2000/svg" xmlns:xlink="http://www.w3.org/1999/xlink" x="0px" y="0px"
	 width="648px" height="648px" viewBox="0 0 648 648" enable-background="new 0 0 648 648" xml:space="preserve">
<path d="M325,14.841c-170.379,0-308.5,138.12-308.5,308.5C16.5,493.72,154.621,631.84,325,631.84
	c170.379,0,308.5-138.12,308.5-308.499C633.5,152.961,495.379,14.841,325,14.841z M491.334,212.877l-107.516,91.215l-18.295,15.087
	c0,0-16.127,14.827-45.26,14.307c0,0-23.151-0.606-47.429-23.843c-16.994-13.527-114.104-96.765-114.104-96.765H491.334z
	 M146.591,219.467l113.412,96.07L146.591,423.054V219.467z M156.996,432.763L270.32,324.901c0,0,49.943,48.902,108.989,0
	l113.758,107.861H156.996z M503.818,424.094L390.407,316.578l113.411-96.07V424.094z"/>
</svg>
