<?xml version="1.0" encoding="utf-8"?>
<!-- Generator: Adobe Illustrator 16.0.4, SVG Export Plug-In . SVG Version: 6.00 Build 0)  -->
<!DOCTYPE svg PUBLIC "-//W3C//DTD SVG 1.1//EN" "http://www.w3.org/Graphics/SVG/1.1/DTD/svg11.dtd">
<svg version="1.1" id="Layer_1" xmlns="http://www.w3.org/2000/svg" xmlns:xlink="http://www.w3.org/1999/xlink" x="0px" y="0px"
	 width="600px" height="600px" viewBox="0 0 600 600" enable-background="new 0 0 600 600" xml:space="preserve">
<rect x="-0.5" y="0.5" display="none" fill="#C1BFBF" stroke="#000000" stroke-miterlimit="10" width="600" height="600"/>
<path id="white_logo" display="none" fill="#FFFFFF" d="M300,16C142.599,16,15,143.599,15,301
	c0,134.331,92.942,246.936,218.024,277.064c0.024-17.805,0.007-35.622,0.007-54.381c-6.374,0.652-12.766,1.338-19.164,1.956
	c-31.218,3.022-58.426-4.956-79.489-29.36c-2.948-3.418-5.302-7.37-7.735-11.199c-10.724-16.883-21.108-33.989-32.21-50.616
	c-3.436-5.146-8.755-9.031-13.2-13.504c-2.342-2.355-4.661-4.733-7.417-7.537c7.703-5.008,15.081-3.645,22.066-2.568
	c17.441,2.685,29.232,13.485,38.571,27.815c4.648,7.131,9.458,14.403,15.427,20.38c19.118,19.134,42.336,25.31,68.636,19.344
	c16.964-3.85,13.674-2.063,16.208-17.558c1.692-10.351,4.546-20.208,10.18-29.146c0.934-1.483,1.708-3.066,2.859-5.152
	c-7.445-1.469-14.397-2.647-21.254-4.229c-27.212-6.275-52.304-16.883-72.163-37.281c-21.044-21.618-32.436-47.509-33.228-77.895
	c-0.666-25.532-0.509-50.989,5.273-76.07c3.71-16.099,10.419-30.524,22.196-42.486c1.825-1.855,2.894-6.248,2.043-8.668
	c-8.39-23.892-7.24-47.51,0.512-71.264c1.333-4.086,2.738-5.07,6.818-3.955c14.964,4.09,27.774,11.812,38.459,22.879
	c7.292,7.553,13.964,15.705,21.206,23.92c18.485-13.354,40.354-13.824,61.934-15.083c23.858-1.392,47.735-1.015,71.18,4.067
	c9.104,1.975,17.765,6,25.857,8.824c9.51-9.035,19.331-18.232,28.998-27.588c8.731-8.451,19.073-13.714,30.739-16.831
	c4.466-1.192,6.731-0.133,8.244,4.227c8.025,23.122,9.38,46.234,0.363,69.414c-1.315,3.381-2.217,6.561,0.89,9.53
	c15.772,15.083,23.618,34.076,25.285,55.359c1.763,22.474,3.877,45.139,2.77,67.57c-2.052,41.629-22.717,72.887-58.621,93.907
	c-19.25,11.269-40.267,17.451-62.22,20.707c-1.256,0.185-2.527,0.312-3.767,0.581c-0.501,0.11-0.937,0.525-1.82,1.051
	c13.929,20.175,14.715,43.172,14.492,66.489c-0.268,28.234,0.05,56.471,0.05,84.707c0,0.294,0,0.553,0,0.828
	C490,550.997,585.074,437.159,585.074,301C585.074,143.599,457.4,16,300,16z"/>
<path d="M300.104,16.586c-157.683,0-285.508,127.827-285.508,285.507c0,138.398,98.477,253.784,229.181,279.939
	c-0.001-0.199-0.004-0.387-0.003-0.598c0.022-15.26,0.007-30.521,0.007-46.601c-5.401,0.553-10.819,1.134-16.241,1.657
	c-26.456,2.562-49.515-4.199-67.364-24.881c-2.499-2.896-4.493-6.246-6.555-9.491c-9.087-14.308-17.889-28.803-27.297-42.895
	c-2.912-4.361-7.418-7.655-11.187-11.445c-1.984-1.995-3.949-4.012-6.285-6.387c6.527-4.241,12.78-3.089,18.7-2.178
	c14.781,2.276,24.773,11.43,32.688,23.574c3.939,6.043,8.015,12.207,13.074,17.272c16.2,16.213,35.878,21.446,58.165,16.393
	c14.375-3.265,11.588-1.749,13.735-14.881c1.435-8.771,3.853-17.125,8.627-24.7c0.792-1.255,1.447-2.597,2.421-4.365
	c-6.307-1.246-12.199-2.243-18.012-3.585c-23.061-5.317-44.326-14.306-61.155-31.592c-17.833-18.321-27.487-40.265-28.158-66.013
	c-0.565-21.638-0.432-43.212,4.468-64.468c3.145-13.643,8.83-25.867,18.81-36.005c1.547-1.571,2.453-5.294,1.732-7.345
	c-7.11-20.247-6.136-40.263,0.434-60.394c1.129-3.462,2.32-4.297,5.777-3.352c12.682,3.466,23.538,10.01,32.593,19.389
	c6.179,6.401,11.834,13.309,17.971,20.272c15.665-11.318,34.199-11.715,52.486-12.783c20.218-1.18,40.453-0.86,60.321,3.447
	c7.718,1.673,15.056,5.085,21.914,7.478c8.061-7.656,16.382-15.45,24.576-23.38c7.398-7.161,16.162-11.622,26.05-14.263
	c3.783-1.011,5.703-0.112,6.984,3.581c6.801,19.595,7.949,39.182,0.31,58.825c-1.115,2.865-1.88,5.562,0.753,8.078
	c13.367,12.781,20.016,28.876,21.43,46.913c1.49,19.047,3.282,38.253,2.345,57.265c-1.739,35.277-19.251,61.768-49.679,79.581
	c-16.312,9.551-34.124,14.789-52.727,17.549c-1.066,0.157-2.144,0.264-3.193,0.491c-0.424,0.094-0.794,0.447-1.541,0.891
	c11.801,17.097,12.407,36.586,12.219,56.349c-0.228,23.927-0.044,47.854-0.021,71.785c0.001,0.529,0,1.017-0.004,1.478
	c132.432-24.786,232.665-140.982,232.665-280.607C585.611,144.414,457.784,16.586,300.104,16.586z"/>
</svg>
