<?xml version="1.0" encoding="utf-8"?>
<!-- Generator: Adobe Illustrator 16.0.4, SVG Export Plug-In . SVG Version: 6.00 Build 0)  -->
<!DOCTYPE svg PUBLIC "-//W3C//DTD SVG 1.1//EN" "http://www.w3.org/Graphics/SVG/1.1/DTD/svg11.dtd">
<svg version="1.1" id="Layer_1" xmlns="http://www.w3.org/2000/svg" xmlns:xlink="http://www.w3.org/1999/xlink" x="0px" y="0px"
	 width="600px" height="600px" viewBox="0 0 600 600" enable-background="new 0 0 600 600" xml:space="preserve">
<rect x="-0.5" y="0.5" display="none" fill="#C1BFBF" stroke="#000000" stroke-miterlimit="10" width="600" height="600"/>
<path display="none" fill="#FFFFFF" d="M300,16C142.599,16,15,143.599,15,301c0,134.331,92.942,246.936,218.024,277.064
	c0.024-17.805,0.007-35.622,0.007-54.381c-6.374,0.652-12.766,1.338-19.164,1.956c-31.218,3.022-58.426-4.956-79.489-29.36
	c-2.948-3.418-5.302-7.37-7.735-11.199c-10.724-16.883-21.108-33.989-32.21-50.616c-3.436-5.146-8.755-9.031-13.2-13.504
	c-2.342-2.355-4.661-4.733-7.417-7.537c7.703-5.008,15.081-3.645,22.066-2.568c17.441,2.685,29.232,13.485,38.571,27.815
	c4.648,7.131,9.458,14.403,15.427,20.38c19.118,19.134,42.336,25.31,68.636,19.344c16.964-3.85,13.674-2.063,16.208-17.558
	c1.692-10.351,4.546-20.208,10.18-29.146c0.934-1.483,1.708-3.066,2.859-5.152c-7.445-1.469-14.397-2.647-21.254-4.229
	c-27.212-6.275-52.304-16.883-72.163-37.281c-21.044-21.618-32.436-47.509-33.228-77.895c-0.666-25.532-0.509-50.989,5.273-76.07
	c3.71-16.099,10.419-30.524,22.196-42.486c1.825-1.855,2.894-6.248,2.043-8.668c-8.39-23.892-7.24-47.51,0.512-71.264
	c1.333-4.086,2.738-5.07,6.818-3.955c14.964,4.09,27.774,11.812,38.459,22.879c7.292,7.553,13.964,15.705,21.206,23.92
	c18.485-13.354,40.354-13.824,61.934-15.083c23.858-1.392,47.735-1.015,71.18,4.067c9.104,1.975,17.765,6,25.857,8.824
	c9.51-9.035,19.331-18.232,28.998-27.588c8.731-8.451,19.073-13.714,30.739-16.831c4.466-1.192,6.731-0.133,8.244,4.227
	c8.025,23.122,9.38,46.234,0.363,69.414c-1.315,3.381-2.217,6.561,0.89,9.53c15.772,15.083,23.618,34.076,25.285,55.359
	c1.763,22.474,3.877,45.139,2.77,67.57c-2.052,41.629-22.717,72.887-58.621,93.907c-19.25,11.269-40.267,17.451-62.22,20.707
	c-1.256,0.185-2.527,0.312-3.767,0.581c-0.501,0.11-0.937,0.525-1.82,1.051c13.929,20.175,14.715,43.172,14.492,66.489
	c-0.268,28.234,0.05,56.471,0.05,84.707c0,0.294,0,0.553,0,0.828C490,550.997,585.074,437.159,585.074,301
	C585.074,143.599,457.4,16,300,16z"/>
<path d="M299.592,15.103c-157.671,0-285.489,127.818-285.489,285.489c0,137.448,97.139,252.196,226.507,279.373
	c-0.004-0.354-0.007-0.717-0.006-1.108c0.022-15.775,0.006-31.55,0.006-48.172c-5.583,0.571-11.183,1.171-16.788,1.715
	c-27.349,2.647-51.185-4.343-69.636-25.722c-2.583-2.994-4.644-6.456-6.776-9.812c-9.394-14.79-18.492-29.775-28.217-44.341
	c-3.01-4.507-7.67-7.912-11.564-11.831c-2.051-2.062-4.083-4.146-6.497-6.604c6.748-4.385,13.21-3.191,19.331-2.249
	c15.279,2.352,25.608,11.814,33.79,24.368c4.072,6.248,8.285,12.619,13.514,17.854c16.747,16.762,37.088,22.172,60.126,16.944
	c14.861-3.37,11.979-1.807,14.199-15.382c1.483-9.067,3.983-17.702,8.918-25.53c0.818-1.3,1.497-2.688,2.504-4.516
	c-6.521-1.286-12.612-2.317-18.619-3.703c-23.839-5.498-45.821-14.79-63.217-32.659c-18.436-18.94-28.415-41.62-29.108-68.238
	c-0.583-22.368-0.446-44.669,4.619-66.642c3.25-14.104,9.128-26.74,19.445-37.219c1.598-1.625,2.535-5.473,1.79-7.593
	c-7.351-20.93-6.342-41.621,0.448-62.431c1.168-3.579,2.398-4.441,5.972-3.464c13.11,3.583,24.333,10.348,33.692,20.043
	c6.388,6.616,12.233,13.758,18.577,20.955c16.194-11.699,35.352-12.109,54.257-13.212c20.9-1.22,41.818-0.89,62.357,3.562
	c7.976,1.73,15.562,5.257,22.652,7.73c8.329-7.914,16.934-15.971,25.403-24.168c7.649-7.403,16.708-12.014,26.929-14.744
	c3.912-1.045,5.896-0.116,7.222,3.702c7.03,20.257,8.216,40.503,0.318,60.81c-1.152,2.962-1.942,5.749,0.779,8.35
	c13.816,13.212,20.691,29.851,22.151,48.495c1.543,19.689,3.394,39.545,2.426,59.196c-1.798,36.466-19.901,63.851-51.355,82.265
	c-16.862,9.873-35.274,15.287-54.506,18.14c-1.103,0.163-2.215,0.274-3.3,0.511c-0.439,0.095-0.82,0.46-1.595,0.919
	c12.201,17.673,12.826,37.821,12.632,58.249c-0.234,24.733-0.046,49.469-0.02,74.205c0.001,0.879-0.002,1.648-0.017,2.349
	C485.366,555.797,585.08,439.849,585.08,300.592C585.08,142.921,457.263,15.103,299.592,15.103z"/>
</svg>
