<?xml version="1.0" encoding="utf-8"?>
<!-- Generator: Adobe Illustrator 16.0.4, SVG Export Plug-In . SVG Version: 6.00 Build 0)  -->
<!DOCTYPE svg PUBLIC "-//W3C//DTD SVG 1.1//EN" "http://www.w3.org/Graphics/SVG/1.1/DTD/svg11.dtd">
<svg version="1.1" id="Layer_1" xmlns="http://www.w3.org/2000/svg" xmlns:xlink="http://www.w3.org/1999/xlink" x="0px" y="0px"
	 width="600px" height="600px" viewBox="0 0 600 600" enable-background="new 0 0 600 600" xml:space="preserve">
<rect x="-0.5" y="0.5" display="none" fill="#C1BFBF" stroke="#000000" stroke-miterlimit="10" width="600" height="600"/>
<rect x="144.5" y="145.5" display="none" fill="none" stroke="#542F00" stroke-miterlimit="10" width="310" height="310"/>
<g display="none">
	<polygon display="inline" fill="#FFFFFF" points="319.555,260.58 319.555,259.885 319.206,260.58 	"/>
	<path display="inline" fill="#FFFFFF" d="M300,16C142.599,16,15,143.599,15,301c0,157.402,127.599,285,285,285
		c157.4,0,285-127.598,285-285C585,143.599,457.4,16,300,16z M200,459h-78V227h78V459z M193.013,183.64
		c-8.112,7.648-18.772,11.36-31.983,11.36h-0.348c-12.747,0-23.06-3.712-30.94-11.36c-7.88-7.648-11.82-17.21-11.82-28.798
		c0-11.589,4.056-21.121,12.167-28.653c8.112-7.532,18.657-11.285,31.635-11.285c12.747,0,23.06,3.715,30.94,11.132
		c8.111,7.647,12.167,17.561,12.167,29.844C204.833,167.005,200.894,176.223,193.013,183.64z M478,459h-77V334.977
		c0-34.997-13.027-52.495-38.985-52.495c-9.966,0-18.275,2.723-24.881,8.169c-6.604,5.445-11.319,12.11-14.563,19.988
		c-1.854,4.404-2.57,10.662-2.57,18.774V459h-77.622c0.464-70,0.695-124.229,0.695-162.933c0-38.703-0.231-62.067-0.695-69.067H320
		v32.885c16-25.725,39.756-38.588,69.652-38.588c26.654,0,47.94,8.865,64.163,26.594C470.039,265.621,478,291.636,478,325.936V459z"
		/>
</g>
<g>
	<path d="M299.949,15.94c-157.428,0-285.047,127.62-285.047,285.048c0,157.428,127.62,285.048,285.047,285.048
		s285.048-127.62,285.048-285.048C584.997,143.56,457.377,15.94,299.949,15.94z M222,427h-60V245h60V427z M217.004,210.924
		c-6.373,6.009-14.75,9.076-25.131,9.076h-0.272c-10.016,0-18.12-3.067-24.312-9.076c-6.192-6.01-9.288-13.599-9.288-22.704
		c0-9.105,3.187-16.633,9.561-22.551c6.374-5.919,14.66-8.886,24.858-8.886c10.016,0,18.12,2.909,24.312,8.737
		c6.374,6.011,9.561,13.869,9.561,23.522C226.292,197.783,223.196,205.096,217.004,210.924z M441,427h-61v-97.312
		c0-27.497-10.02-41.247-30.416-41.247c-7.83,0-14.251,2.14-19.441,6.419s-9.234,9.515-11.783,15.707
		c-1.457,3.46-2.359,8.377-2.359,14.75V427h-60.206c0.364-55,0.546-97.466,0.546-127.878S256.158,251,255.794,245H316v25.685
		c14-20.213,31.631-30.32,55.123-30.32c20.943,0,37.897,6.965,50.646,20.897c12.747,13.931,19.23,34.373,19.23,61.325V427z"/>
	<polygon points="316.437,271.231 316.437,270.685 316.163,271.231 	"/>
</g>
</svg>
