<?xml version="1.0" encoding="utf-8"?>
<!-- Generator: Adobe Illustrator 16.0.4, SVG Export Plug-In . SVG Version: 6.00 Build 0)  -->
<!DOCTYPE svg PUBLIC "-//W3C//DTD SVG 1.1//EN" "http://www.w3.org/Graphics/SVG/1.1/DTD/svg11.dtd">
<svg version="1.1" id="Layer_1" xmlns="http://www.w3.org/2000/svg" xmlns:xlink="http://www.w3.org/1999/xlink" x="0px" y="0px"
	 width="600px" height="600px" viewBox="0 0 600 600" enable-background="new 0 0 600 600" xml:space="preserve">
<rect x="-0.5" y="0.5" display="none" fill="#C1BFBF" stroke="#000000" stroke-miterlimit="10" width="600" height="600"/>
<rect x="103.5" y="104.5" display="none" fill="none" stroke="#542F00" stroke-miterlimit="10" width="392" height="392"/>
<path display="none" fill="#FFFFFF" d="M300,16C142.599,16,15,143.599,15,301c0,157.402,127.599,285,285,285
	c157.4,0,285-127.598,285-285C585,143.599,457.4,16,300,16z M463.507,214.982c0.164,3.629,0.238,7.275,0.238,10.938
	c0,111.814-85.115,240.757-240.756,240.757l0.004-0.006c-47.792,0-92.26-14.006-129.709-38.009c6.624,0.782,13.362,1.17,20.184,1.17
	c39.651,0,76.134-13.52,105.095-36.22c-37.036-0.684-68.273-25.149-79.046-58.771c5.156,0.991,10.459,1.526,15.904,1.526
	c7.721,0,15.202-1.04,22.312-2.978c-38.718-7.754-67.886-41.968-67.886-82.948c0-0.378,0-0.725,0.013-1.08
	c11.398,6.343,24.439,10.154,38.322,10.583c-22.717-15.162-37.655-41.077-37.655-70.434c0-15.5,4.19-30.026,11.457-42.53
	c41.735,51.199,104.096,84.87,174.422,88.408c-1.451-6.194-2.193-12.653-2.193-19.293c0-46.71,37.894-84.605,84.621-84.605
	c24.343,0,46.324,10.287,61.768,26.733c19.275-3.803,37.381-10.847,53.73-20.539c-6.327,19.755-19.739,36.327-37.21,46.802
	c17.116-2.046,33.432-6.583,48.594-13.322C494.389,188.132,480.028,203.038,463.507,214.982z"/>
<path d="M300.468,15.689c-157.563,0-285.293,127.73-285.293,285.293c0,157.562,127.729,285.293,285.293,285.293
	s285.293-127.73,285.293-285.293C585.761,143.419,458.031,15.689,300.468,15.689z M432.183,237.543
	c0.132,2.914,0.191,5.843,0.191,8.784c0,89.799-68.356,193.354-193.353,193.354l0.003-0.004c-38.383,0-74.095-11.249-104.17-30.526
	c5.319,0.629,10.731,0.94,16.21,0.94c31.844,0,61.144-10.857,84.403-29.089c-29.744-0.549-54.831-20.197-63.482-47.198
	c4.14,0.795,8.4,1.225,12.772,1.225c6.201,0,12.209-0.834,17.919-2.391c-31.095-6.228-54.52-33.705-54.52-66.616
	c0-0.304,0-0.582,0.01-0.867c9.154,5.094,19.627,8.155,30.777,8.499c-18.244-12.176-30.241-32.989-30.241-56.566
	c0-12.448,3.365-24.114,9.201-34.157c33.518,41.119,83.6,68.16,140.08,71.001c-1.166-4.975-1.762-10.162-1.762-15.495
	c0-37.513,30.433-67.947,67.96-67.947c19.55,0,37.203,8.261,49.605,21.47c15.48-3.054,30.021-8.711,43.151-16.495
	c-5.081,15.866-15.853,29.174-29.883,37.587c13.745-1.644,26.849-5.287,39.025-10.699
	C456.984,215.979,445.451,227.951,432.183,237.543z"/>
</svg>
